<svg width="39" height="12" viewBox="0 0 39 12" fill="none" xmlns="http://www.w3.org/2000/svg">
<path fill-rule="evenodd" clip-rule="evenodd" d="M2.44044 0.0298397C1.84986 0.0998577 1.28943 0.316785 0.915499 0.62011C0.565142 0.904325 0.251349 1.4611 0.210064 1.87189C0.184701 2.12412 0.219505 2.14265 0.85288 2.21376C1.52367 2.28911 1.62568 2.28969 1.68639 2.21838C1.71272 2.18749 1.7603 2.07546 1.79212 1.96947C1.86934 1.7122 2.09496 1.47459 2.34138 1.39105C2.56039 1.31679 2.90719 1.31708 3.08841 1.39166C3.2623 1.46322 3.45601 1.6884 3.50117 1.87154C3.52052 1.94987 3.53632 2.16414 3.53632 2.34766V2.68131L3.02497 2.7378C1.65187 2.88943 1.09659 3.08734 0.592959 3.60467C0.307016 3.89843 0.176143 4.12506 0.071357 4.50794C-0.0168774 4.83047 -0.0244622 5.39322 0.0551816 5.71125C0.297795 6.68039 1.09942 7.17007 2.21447 7.03022C2.75599 6.96233 3.08634 6.80543 3.54409 6.39865L3.80313 6.16846L3.93929 6.37565C4.01418 6.48958 4.16928 6.6758 4.28392 6.7894C4.59192 7.09465 4.61514 7.09051 5.12863 6.63944C5.74208 6.10053 5.7705 6.07088 5.7705 5.9701C5.7705 5.91874 5.72604 5.82139 5.66537 5.73997C5.51945 5.54414 5.41473 5.3672 5.34421 5.19736C5.28873 5.06378 5.28263 4.92625 5.26365 3.38267C5.24106 1.5438 5.23316 1.46148 5.04134 1.06379C4.6794 0.313381 3.61571 -0.109458 2.44044 0.0298397ZM18.2473 0.0314139C17.2934 0.14068 16.5434 0.603699 16.2225 1.2814C16.08 1.58231 15.994 1.90452 16.0298 2.00332C16.0427 2.03891 16.0765 2.08769 16.1048 2.11169C16.1562 2.15521 17.0284 2.27061 17.3262 2.27327C17.4992 2.27481 17.5403 2.2303 17.6204 1.95492C17.7273 1.58761 18.087 1.33879 18.5148 1.33622C18.7959 1.33455 18.9751 1.39693 19.1319 1.55106C19.3058 1.72196 19.3644 1.92431 19.3644 2.35444V2.6796L18.7586 2.75039C17.5885 2.88712 17.0908 3.03965 16.6091 3.40927C16.2762 3.66477 16 4.08979 15.884 4.52544C15.8075 4.81278 15.8071 5.45944 15.8832 5.7408C16.0479 6.34967 16.4123 6.74755 16.994 6.95349C17.2146 7.03157 17.2847 7.04069 17.6651 7.04082C18.4424 7.04108 18.8657 6.87506 19.4011 6.35998L19.6115 6.15754L19.745 6.35998C19.8183 6.4713 19.9762 6.65996 20.0958 6.77919C20.4232 7.10557 20.4197 7.10644 21.0637 6.53721C21.4386 6.20597 21.5853 6.05643 21.5919 5.99923C21.5981 5.94533 21.5355 5.81946 21.3959 5.60513C21.0723 5.10804 21.0876 5.21673 21.0641 3.2542C21.046 1.74718 21.0372 1.53166 20.9877 1.37528C20.8899 1.06656 20.7493 0.837392 20.5253 0.621718C20.1768 0.286145 19.7285 0.10339 19.0698 0.0284263C18.7306 -0.0101799 18.6066 -0.00972972 18.2473 0.0314139ZM9.48364 0.0949115C9.02454 0.171739 8.6035 0.501306 8.35872 0.975437L8.2269 1.23074L8.22593 0.792683C8.22451 0.163485 8.27684 0.202958 7.44434 0.202958C6.83919 0.202958 6.77852 0.208066 6.71782 0.264144L6.65158 0.325329V3.58036C6.65158 6.79258 6.6524 6.83623 6.71452 6.89963C6.77361 6.95995 6.8194 6.96387 7.46624 6.96387C8.09744 6.96387 8.16126 6.95873 8.22932 6.90249L8.30362 6.84111L8.32086 4.63012C8.33401 2.94435 8.34783 2.38861 8.37898 2.29065C8.45236 2.05998 8.57723 1.86145 8.70643 1.77008C8.81326 1.6945 8.87179 1.6786 9.07875 1.66903C9.46218 1.65124 9.63569 1.7606 9.7846 2.114C9.84243 2.25118 9.8463 2.37502 9.86125 4.54982L9.87698 6.84111L9.95128 6.90249C10.0193 6.9587 10.0831 6.96387 10.7084 6.96387C11.3425 6.96387 11.396 6.95937 11.4573 6.90108C11.5228 6.83877 11.5235 6.82129 11.5375 4.69294C11.5528 2.37522 11.5553 2.34092 11.7256 2.04504C11.9027 1.73741 12.2757 1.59538 12.6373 1.69787C12.798 1.74342 12.942 1.87523 13.0206 2.0487C13.0853 2.19121 13.087 2.24327 13.1024 4.5177L13.1181 6.84111L13.1924 6.90249C13.2603 6.9586 13.324 6.96387 13.9355 6.96387C14.5645 6.96387 14.6093 6.95992 14.6872 6.89729L14.7702 6.83074L14.7696 4.22343C14.769 1.3686 14.7693 1.37367 14.5828 0.966925C14.3256 0.405882 13.613 0.0172174 12.9417 0.0718186C12.2682 0.12658 11.7716 0.459069 11.481 1.04969L11.3963 1.22198L11.339 1.09148C11.2467 0.88104 11.0403 0.59114 10.8777 0.443524C10.5298 0.127769 10.0317 0.00318152 9.48364 0.0949115ZM29.9689 0.0937235C28.9791 0.247506 28.2402 0.939624 27.8804 2.04976C27.7184 2.55001 27.6625 2.93783 27.6629 3.55932C27.6632 4.13842 27.7113 4.51529 27.8449 4.98576C28.0846 5.82999 28.5796 6.48845 29.2199 6.81487C29.5972 7.00716 29.8071 7.06164 30.2539 7.08316C30.6483 7.10214 30.9941 7.051 31.298 6.92873C32.2218 6.55706 32.8891 5.6061 33.0876 4.37834C33.1484 4.00175 33.1397 3.13331 33.071 2.74031C32.8631 1.54974 32.2948 0.68364 31.4683 0.297417C31.0717 0.112062 30.4203 0.0235771 29.9689 0.0937235ZM37.0018 0.0787249C36.398 0.173988 35.988 0.513509 35.6939 1.16195L35.6044 1.35922L35.603 0.842274C35.6011 0.159021 35.6532 0.206137 34.8847 0.192872C34.2481 0.18192 34.1831 0.189373 34.0903 0.284058C34.0293 0.346367 34.0282 0.404179 34.0282 3.57683V6.8062L34.1054 6.88502C34.1826 6.96384 34.1829 6.96387 34.8571 6.96387C35.4742 6.96387 35.5379 6.95863 35.6059 6.90249L35.6802 6.84114L35.6974 4.77465C35.7139 2.78935 35.7172 2.69852 35.782 2.46187C35.873 2.12925 35.9503 1.98479 36.1176 1.8345C36.3257 1.64745 36.548 1.59314 36.806 1.66627C37.068 1.74056 37.2405 2.00538 37.2999 2.42452C37.3178 2.55084 37.3313 3.53231 37.3316 4.73733L37.3322 6.83074L37.4151 6.89729C37.4931 6.95989 37.5379 6.96387 38.1661 6.96387C38.7943 6.96387 38.8391 6.95989 38.9171 6.89729L39 6.83074V4.48716C39 3.07546 38.9869 2.01957 38.9671 1.83171C38.9304 1.48403 38.8406 1.11027 38.7509 0.931306C38.5737 0.577747 38.2165 0.272205 37.8425 0.154298C37.6389 0.0900937 37.1871 0.0494972 37.0018 0.0787249ZM22.6055 0.251135C22.5474 0.310426 22.5426 0.358185 22.5426 0.872464C22.5426 1.39789 22.5464 1.43303 22.6088 1.49074C22.6703 1.54766 22.7494 1.55305 23.7418 1.56799L24.8087 1.58405L23.6151 3.329C22.9586 4.28876 22.3982 5.13344 22.3698 5.20609C22.3012 5.38101 22.2649 6.3991 22.3199 6.60395C22.3796 6.82614 22.4497 6.83751 22.8004 6.682C23.316 6.45328 23.6905 6.3506 24.2418 6.28675C24.9889 6.20026 25.9335 6.36178 26.607 6.69122C26.733 6.75285 26.8523 6.80328 26.8721 6.80328C26.8919 6.80328 26.9454 6.77331 26.991 6.73669L27.0739 6.67015V6.06468V5.45922L26.991 5.35872C26.7539 5.07104 25.871 4.7971 25.04 4.75339L24.6267 4.73164L25.7323 3.11991C26.3404 2.23345 26.8662 1.4602 26.9008 1.40158C26.9565 1.30731 26.9637 1.23804 26.9637 0.802383C26.9637 0.323435 26.9617 0.308082 26.8895 0.248342C26.818 0.189212 26.7368 0.186899 24.7418 0.186899C22.7104 0.186899 22.6672 0.188184 22.6055 0.251135ZM30.6769 1.41077C30.8748 1.46604 31.0828 1.70677 31.1637 1.97403C31.2986 2.41957 31.333 2.75534 31.3331 3.62356C31.3332 4.33967 31.3248 4.48273 31.2659 4.76216C31.1172 5.4677 30.8407 5.77549 30.3556 5.77549C29.952 5.77549 29.6802 5.43873 29.5411 4.76633C29.3838 4.00522 29.4273 2.51008 29.6222 1.9782C29.802 1.48785 30.1952 1.27629 30.6769 1.41077ZM3.53632 4.11548C3.53632 4.35072 3.52084 4.62861 3.50196 4.73299C3.42524 5.15654 3.17278 5.53936 2.86103 5.70486C2.73752 5.77042 2.65722 5.78904 2.4979 5.78911C2.00987 5.78927 1.74507 5.43031 1.78069 4.81685C1.79803 4.51764 1.88501 4.30148 2.06248 4.11642C2.30031 3.86843 2.80615 3.69769 3.32391 3.69069L3.53632 3.6878V4.11548ZM19.3639 4.11337C19.363 4.77552 19.2601 5.14584 18.9898 5.45929C18.5881 5.9251 17.9386 5.90101 17.6901 5.41104C17.6068 5.24682 17.5757 4.79334 17.632 4.56341C17.7645 4.02228 18.3136 3.70742 19.152 3.69175L19.3644 3.6878L19.3639 4.11337ZM23.946 7.30358C23.4143 7.38799 22.9465 7.55195 22.5679 7.78667C22.3616 7.91463 22.2759 8.02159 22.305 8.11509C22.3334 8.20624 22.4066 8.2142 22.7846 8.16715C23.9219 8.02557 24.7098 8.04446 25.05 8.22143C25.2003 8.2996 25.2334 8.62634 25.1387 9.09469C25.0795 9.38678 24.8304 10.1616 24.6524 10.6066C24.4732 11.0547 24.486 11.1791 24.706 11.1248C24.8256 11.0953 25.2019 10.6912 25.4168 10.3614C25.7343 9.87453 26.0013 9.19596 26.1174 8.5809C26.1831 8.23325 26.1922 7.68586 26.134 7.5791C26.0759 7.47243 25.8146 7.36046 25.4885 7.30256C25.1414 7.24092 24.3376 7.24147 23.946 7.30358ZM5.52505 7.70901C5.45982 7.77559 5.48229 7.91348 5.57383 8.00836C5.7132 8.15283 6.39148 8.72411 6.69878 8.95588C9.09392 10.7623 11.8704 11.7845 14.896 11.9737C17.991 12.1672 21.4196 11.2824 23.7698 9.68371C24.2322 9.36918 24.2738 9.33571 24.3235 9.23785C24.3872 9.11274 24.3784 9.03733 24.2871 8.92665C24.1455 8.75485 24.0671 8.76275 23.4364 9.01221C21.0853 9.94227 18.8642 10.4009 16.4537 10.454C12.845 10.5336 9.28191 9.64793 6.146 7.89193C5.75344 7.67211 5.60426 7.62817 5.52505 7.70901Z" fill="white"/>
</svg>
