<?xml version="1.0" encoding="UTF-8"?>
<!DOCTYPE svg PUBLIC "-//W3C//DTD SVG 1.1//EN" "http://www.w3.org/Graphics/SVG/1.1/DTD/svg11.dtd">
<svg xmlns="http://www.w3.org/2000/svg" version="1.1" width="512px" height="512px" style="shape-rendering:geometricPrecision; text-rendering:geometricPrecision; image-rendering:optimizeQuality; fill-rule:evenodd; clip-rule:evenodd" xmlns:xlink="http://www.w3.org/1999/xlink">
<g><path style="opacity:0.981" fill="#0051cb" d="M 250.5,45.5 C 303.26,46.953 338.094,72.6197 355,122.5C 364.709,171.065 349.209,209.232 308.5,237C 261.156,261.469 218.322,255.302 180,218.5C 148.541,180.815 144.207,140.149 167,96.5C 186.63,66.0302 214.464,49.0302 250.5,45.5 Z M 244.5,81.5 C 278.623,78.4668 303.123,92.1335 318,122.5C 328.631,152.688 322.464,178.854 299.5,201C 272.183,220.457 244.183,221.457 215.5,204C 189.315,182.099 181.815,154.933 193,122.5C 202.941,99.7223 220.108,86.0557 244.5,81.5 Z"/></g>
<g><path style="opacity:0.992" fill="#009eff" d="M 357.5,258.5 C 368.188,257.262 375.688,261.596 380,271.5C 380.499,277.491 380.666,283.491 380.5,289.5C 387.692,291.177 394.525,293.843 401,297.5C 406.198,292.635 411.698,288.135 417.5,284C 422.44,282.959 427.106,283.626 431.5,286C 441.171,292.708 443.337,301.208 438,311.5C 433.984,315.348 430.151,319.348 426.5,323.5C 430.303,329.764 432.97,336.43 434.5,343.5C 451.043,339.931 461.71,346.097 466.5,362C 461.89,378.151 451.223,384.317 434.5,380.5C 433.209,387.705 430.542,394.371 426.5,400.5C 429.818,404.318 433.318,407.985 437,411.5C 443.644,422.594 441.478,431.761 430.5,439C 425.918,441.323 421.251,441.656 416.5,440C 410.727,436.064 405.394,431.564 400.5,426.5C 394.314,430.174 387.814,433.174 381,435.5C 383.986,451.555 377.82,461.888 362.5,466.5C 345.984,462.162 339.65,451.496 343.5,434.5C 336.43,432.97 329.764,430.303 323.5,426.5C 318.606,431.564 313.273,436.064 307.5,440C 302.696,441.97 298.03,441.637 293.5,439C 291,436.5 288.5,434 286,431.5C 282.667,425.5 282.667,419.5 286,413.5C 290.214,409.622 294.048,405.455 297.5,401C 293.843,394.525 291.177,387.692 289.5,380.5C 283.491,380.666 277.491,380.499 271.5,380C 260.155,374.814 256.321,366.314 260,354.5C 267.151,344.109 276.985,340.442 289.5,343.5C 291.091,336.559 293.758,330.059 297.5,324C 293.347,319.178 289.18,314.345 285,309.5C 281.307,299.714 283.807,291.881 292.5,286C 297.988,283.085 303.655,282.752 309.5,285C 314.345,289.18 319.178,293.347 324,297.5C 330.059,293.758 336.559,291.091 343.5,289.5C 340.414,275.356 345.081,265.023 357.5,258.5 Z M 361.5,323.5 C 385.544,325.182 398.544,338.016 400.5,362C 399,386.167 386.167,399 362,400.5C 338.51,398.343 325.677,385.51 323.5,362C 325.677,338.657 338.344,325.823 361.5,323.5 Z"/></g>
<g><path style="opacity:0.979" fill="#0051cb" d="M 180.5,280.5 C 199.836,280.333 219.17,280.5 238.5,281C 250.834,286.335 254.334,295.168 249,307.5C 246.408,310.762 243.241,313.262 239.5,315C 221.5,315.333 203.5,315.667 185.5,316C 138.041,321.793 110.541,348.293 103,395.5C 100.63,406.374 103.13,415.874 110.5,424C 113.554,426.194 116.888,427.861 120.5,429C 160.213,429.023 199.88,429.69 239.5,431C 252.873,439.14 254.54,449.14 244.5,461C 241.874,463.146 238.874,464.479 235.5,465C 198.167,465.667 160.833,465.667 123.5,465C 95.9524,461.123 77.7858,445.956 69,419.5C 64.2087,370.919 81.3754,332.086 120.5,303C 138.754,290.64 158.754,283.14 180.5,280.5 Z"/></g>
</svg>
