<?xml version="1.0" encoding="UTF-8"?>
<!DOCTYPE svg PUBLIC "-//W3C//DTD SVG 1.1//EN" "http://www.w3.org/Graphics/SVG/1.1/DTD/svg11.dtd">
<svg xmlns="http://www.w3.org/2000/svg" version="1.1" width="512px" height="512px" style="shape-rendering:geometricPrecision; text-rendering:geometricPrecision; image-rendering:optimizeQuality; fill-rule:evenodd; clip-rule:evenodd" xmlns:xlink="http://www.w3.org/1999/xlink">
<g><path style="opacity:0.991" fill="#60b2f4" d="M 132.5,-0.5 C 136.5,-0.5 140.5,-0.5 144.5,-0.5C 97.4176,48.0832 49.751,96.2499 1.5,144C 0.905578,144.464 0.238911,144.631 -0.5,144.5C -0.5,140.167 -0.5,135.833 -0.5,131.5C 13.2924,56.7075 57.6258,12.7075 132.5,-0.5 Z"/></g>
<g><path style="opacity:1" fill="#5daff2" d="M 144.5,-0.5 C 154.5,-0.5 164.5,-0.5 174.5,-0.5C 116.5,58.1667 58.1667,116.5 -0.5,174.5C -0.5,164.5 -0.5,154.5 -0.5,144.5C 0.238911,144.631 0.905578,144.464 1.5,144C 49.751,96.2499 97.4176,48.0832 144.5,-0.5 Z"/></g>
<g><path style="opacity:1" fill="#59acf1" d="M 174.5,-0.5 C 192.5,-0.5 210.5,-0.5 228.5,-0.5C 152.5,76.1667 76.1667,152.5 -0.5,228.5C -0.5,210.5 -0.5,192.5 -0.5,174.5C 58.1667,116.5 116.5,58.1667 174.5,-0.5 Z"/></g>
<g><path style="opacity:1" fill="#54a7ee" d="M 228.5,-0.5 C 251.167,-0.5 273.833,-0.5 296.5,-0.5C 261.035,35.4654 225.368,71.2987 189.5,107C 189.728,107.399 190.062,107.565 190.5,107.5C 170.526,116.141 156.192,130.474 147.5,150.5C 147.565,150.062 147.399,149.728 147,149.5C 97.9654,198.701 48.7987,247.701 -0.5,296.5C -0.5,273.833 -0.5,251.167 -0.5,228.5C 76.1667,152.5 152.5,76.1667 228.5,-0.5 Z"/></g>
<g><path style="opacity:1" fill="#4fa4ec" d="M 296.5,-0.5 C 309.5,-0.5 322.5,-0.5 335.5,-0.5C 301.535,33.9654 267.368,68.2987 233,102.5C 232.536,103.094 232.369,103.761 232.5,104.5C 218.2,101.318 204.2,102.318 190.5,107.5C 190.062,107.565 189.728,107.399 189.5,107C 225.368,71.2987 261.035,35.4654 296.5,-0.5 Z"/></g>
<g><path style="opacity:0.999" fill="#4ca1ea" d="M 335.5,-0.5 C 348.833,-0.5 362.167,-0.5 375.5,-0.5C 337.368,38.132 299.035,76.632 260.5,115C 261.056,115.383 261.389,115.883 261.5,116.5C 252.685,110.597 243.018,106.597 232.5,104.5C 232.369,103.761 232.536,103.094 233,102.5C 267.368,68.2987 301.535,33.9654 335.5,-0.5 Z"/></g>
<g><path style="opacity:0.998" fill="#479de8" d="M 375.5,-0.5 C 376.5,-0.5 377.5,-0.5 378.5,-0.5C 396.489,1.60709 413.489,6.94043 429.5,15.5C 428.761,15.369 428.094,15.5357 427.5,16C 383.299,60.3681 338.965,104.535 294.5,148.5C 289.12,143.45 283.787,138.45 278.5,133.5C 273.167,127.5 267.5,121.833 261.5,116.5C 261.389,115.883 261.056,115.383 260.5,115C 299.035,76.632 337.368,38.132 375.5,-0.5 Z"/></g>
<g><path style="opacity:0.999" fill="#4197e5" d="M 429.5,15.5 C 444.179,22.5145 457.179,31.8478 468.5,43.5C 421.833,89.8333 375.167,136.167 328.5,182.5C 316.833,171.5 305.5,160.167 294.5,148.5C 338.965,104.535 383.299,60.3681 427.5,16C 428.094,15.5357 428.761,15.369 429.5,15.5 Z"/></g>
<g><path style="opacity:0.998" fill="#3b92e2" d="M 468.5,43.5 C 480.293,55.0757 489.626,68.4091 496.5,83.5C 451.75,126.749 407.417,170.582 363.5,215C 362.906,215.464 362.239,215.631 361.5,215.5C 354.833,209.167 348.167,202.833 341.5,196.5C 337.167,191.833 332.833,187.167 328.5,182.5C 375.167,136.167 421.833,89.8333 468.5,43.5 Z"/></g>
<g><path style="opacity:0.998" fill="#358ddf" d="M 496.5,83.5 C 504.445,98.9497 509.445,115.283 511.5,132.5C 511.5,137.5 511.5,142.5 511.5,147.5C 486.167,172.167 461.167,197.167 436.5,222.5C 435.395,221.4 434.062,220.733 432.5,220.5C 423.606,208.482 412.94,206.649 400.5,215C 393.965,221.703 387.298,228.203 380.5,234.5C 373.833,228.5 367.5,222.167 361.5,215.5C 362.239,215.631 362.906,215.464 363.5,215C 407.417,170.582 451.75,126.749 496.5,83.5 Z"/></g>
<g><path style="opacity:1" fill="#fefefe" d="M 232.5,104.5 C 243.018,106.597 252.685,110.597 261.5,116.5C 267.5,121.833 273.167,127.5 278.5,133.5C 298.069,164.928 296.903,195.595 275,225.5C 251.37,250.116 223.203,257.283 190.5,247C 183.98,244.245 177.98,240.745 172.5,236.5C 166.806,231.473 161.473,226.14 156.5,220.5C 150.941,211.492 146.941,201.825 144.5,191.5C 142.45,177.578 143.45,163.911 147.5,150.5C 156.192,130.474 170.526,116.141 190.5,107.5C 204.2,102.318 218.2,101.318 232.5,104.5 Z"/></g>
<g><path style="opacity:1" fill="#4fa4ec" d="M 147.5,150.5 C 143.45,163.911 142.45,177.578 144.5,191.5C 96.1667,239.5 47.8333,287.5 -0.5,335.5C -0.5,322.5 -0.5,309.5 -0.5,296.5C 48.7987,247.701 97.9654,198.701 147,149.5C 147.399,149.728 147.565,150.062 147.5,150.5 Z"/></g>
<g><path style="opacity:1" fill="#2d87db" d="M 511.5,147.5 C 511.5,197.5 511.5,247.5 511.5,297.5C 504.5,290.833 497.5,284.167 490.5,277.5C 480.5,266.833 470.167,256.5 459.5,246.5C 451.833,238.5 444.167,230.5 436.5,222.5C 461.167,197.167 486.167,172.167 511.5,147.5 Z"/></g>
<g><path style="opacity:1" fill="#2e6ca4" d="M 278.5,133.5 C 283.787,138.45 289.12,143.45 294.5,148.5C 305.5,160.167 316.833,171.5 328.5,182.5C 332.833,187.167 337.167,191.833 341.5,196.5C 316.5,221.833 291.5,247.167 266.5,272.5C 249.205,277.351 231.538,279.685 213.5,279.5C 200.473,265.523 186.973,251.856 173,238.5C 172.536,237.906 172.369,237.239 172.5,236.5C 177.98,240.745 183.98,244.245 190.5,247C 223.203,257.283 251.37,250.116 275,225.5C 296.903,195.595 298.069,164.928 278.5,133.5 Z"/></g>
<g><path style="opacity:1" fill="#4ca1ea" d="M 144.5,191.5 C 146.941,201.825 150.941,211.492 156.5,220.5C 104.417,271.082 52.75,322.249 1.5,374C 0.905578,374.464 0.238911,374.631 -0.5,374.5C -0.5,361.5 -0.5,348.5 -0.5,335.5C 47.8333,287.5 96.1667,239.5 144.5,191.5 Z"/></g>
<g><path style="opacity:1" fill="#2d6fad" d="M 341.5,196.5 C 348.167,202.833 354.833,209.167 361.5,215.5C 367.5,222.167 373.833,228.5 380.5,234.5C 365.869,249.632 351.035,264.632 336,279.5C 329.167,272.667 322.333,265.833 315.5,259C 301.532,251.21 290.699,254.377 283,268.5C 281.939,274.724 282.606,280.724 285,286.5C 298.064,301.065 311.897,314.731 326.5,327.5C 322.833,330.5 319.5,333.833 316.5,337.5C 302.252,324.755 288.419,311.422 275,297.5C 270.154,289.75 267.32,281.417 266.5,272.5C 291.5,247.167 316.5,221.833 341.5,196.5 Z"/></g>
<g><path style="opacity:1" fill="#fdfdfe" d="M 432.5,220.5 C 436.596,228.37 436.096,236.037 431,243.5C 403.833,270.667 376.667,297.833 349.5,325C 342.252,329.791 334.585,330.625 326.5,327.5C 311.897,314.731 298.064,301.065 285,286.5C 282.606,280.724 281.939,274.724 283,268.5C 290.699,254.377 301.532,251.21 315.5,259C 322.333,265.833 329.167,272.667 336,279.5C 351.035,264.632 365.869,249.632 380.5,234.5C 387.298,228.203 393.965,221.703 400.5,215C 412.94,206.649 423.606,208.482 432.5,220.5 Z"/></g>
<g><path style="opacity:0.998" fill="#489de8" d="M 156.5,220.5 C 161.473,226.14 166.806,231.473 172.5,236.5C 172.369,237.239 172.536,237.906 173,238.5C 186.973,251.856 200.473,265.523 213.5,279.5C 204.071,279.749 194.738,278.916 185.5,277C 173.685,274.285 162.019,270.952 150.5,267C 126.916,264.208 110.416,273.708 101,295.5C 93.4547,319.715 85.6214,343.715 77.5,367.5C 77.5654,367.062 77.3988,366.728 77,366.5C 56.2986,387.368 35.4653,408.035 14.5,428.5C 6.85072,412.884 1.85072,396.551 -0.5,379.5C -0.5,377.833 -0.5,376.167 -0.5,374.5C 0.238911,374.631 0.905578,374.464 1.5,374C 52.75,322.249 104.417,271.082 156.5,220.5 Z"/></g>
<g><path style="opacity:1" fill="#2973b9" d="M 432.5,220.5 C 434.062,220.733 435.395,221.4 436.5,222.5C 444.167,230.5 451.833,238.5 459.5,246.5C 424.883,282.784 389.55,318.451 353.5,353.5C 351.847,349.555 350.181,345.555 348.5,341.5C 336.967,346.349 326.3,345.015 316.5,337.5C 319.5,333.833 322.833,330.5 326.5,327.5C 334.585,330.625 342.252,329.791 349.5,325C 376.667,297.833 403.833,270.667 431,243.5C 436.096,236.037 436.596,228.37 432.5,220.5 Z"/></g>
<g><path style="opacity:1" fill="#2573be" d="M 459.5,246.5 C 470.167,256.5 480.5,266.833 490.5,277.5C 412.833,355.5 335.167,433.5 257.5,511.5C 236.833,511.5 216.167,511.5 195.5,511.5C 195.5,511.167 195.5,510.833 195.5,510.5C 230.451,477.217 264.784,443.217 298.5,408.5C 310.838,408.667 323.171,408.5 335.5,408C 353.22,402.73 361.053,390.896 359,372.5C 357.058,366.178 355.225,359.844 353.5,353.5C 389.55,318.451 424.883,282.784 459.5,246.5 Z"/></g>
<g><path style="opacity:1" fill="#fdfefe" d="M 213.5,279.5 C 231.538,279.685 249.205,277.351 266.5,272.5C 267.32,281.417 270.154,289.75 275,297.5C 288.419,311.422 302.252,324.755 316.5,337.5C 326.3,345.015 336.967,346.349 348.5,341.5C 350.181,345.555 351.847,349.555 353.5,353.5C 355.225,359.844 357.058,366.178 359,372.5C 361.053,390.896 353.22,402.73 335.5,408C 323.171,408.5 310.838,408.667 298.5,408.5C 280.5,408.5 262.5,408.5 244.5,408.5C 228.5,408.5 212.5,408.5 196.5,408.5C 164.498,408.667 132.498,408.5 100.5,408C 96.9609,407.321 93.6276,406.154 90.5,404.5C 77.6492,395.286 73.3158,382.953 77.5,367.5C 85.6214,343.715 93.4547,319.715 101,295.5C 110.416,273.708 126.916,264.208 150.5,267C 162.019,270.952 173.685,274.285 185.5,277C 194.738,278.916 204.071,279.749 213.5,279.5 Z"/></g>
<g><path style="opacity:1" fill="#2174c4" d="M 490.5,277.5 C 497.5,284.167 504.5,290.833 511.5,297.5C 511.5,302.5 511.5,307.5 511.5,312.5C 444.833,378.5 378.5,444.833 312.5,511.5C 294.167,511.5 275.833,511.5 257.5,511.5C 335.167,433.5 412.833,355.5 490.5,277.5 Z"/></g>
<g><path style="opacity:0.999" fill="#1e75ca" d="M 511.5,312.5 C 511.5,334.5 511.5,356.5 511.5,378.5C 510.833,381.167 510.167,383.833 509.5,386.5C 468.167,427.167 427.167,468.167 386.5,509.5C 383.833,510.167 381.167,510.833 378.5,511.5C 356.5,511.5 334.5,511.5 312.5,511.5C 378.5,444.833 444.833,378.5 511.5,312.5 Z"/></g>
<g><path style="opacity:0.996" fill="#4198e5" d="M 77.5,367.5 C 73.3158,382.953 77.6492,395.286 90.5,404.5C 90.0618,404.435 89.7284,404.601 89.5,405C 92.3714,407.703 95.0381,410.536 97.5,413.5C 79.5,431.833 61.5,450.167 43.5,468.5C 31.5432,456.869 21.8765,443.536 14.5,428.5C 35.4653,408.035 56.2986,387.368 77,366.5C 77.3988,366.728 77.5654,367.062 77.5,367.5 Z"/></g>
<g><path style="opacity:0.995" fill="#1a75cf" d="M 509.5,386.5 C 498.874,442.958 466.874,481.792 413.5,503C 404.747,506.272 395.747,508.439 386.5,509.5C 427.167,468.167 468.167,427.167 509.5,386.5 Z"/></g>
<g><path style="opacity:1" fill="#2b6fad" d="M 90.5,404.5 C 93.6276,406.154 96.9609,407.321 100.5,408C 132.498,408.5 164.498,408.667 196.5,408.5C 179.782,426.218 162.449,443.218 144.5,459.5C 139.833,455.167 135.167,450.833 130.5,446.5C 119.833,435.167 108.833,424.167 97.5,413.5C 95.0381,410.536 92.3714,407.703 89.5,405C 89.7284,404.601 90.0618,404.435 90.5,404.5 Z"/></g>
<g><path style="opacity:1" fill="#2970b3" d="M 196.5,408.5 C 212.5,408.5 228.5,408.5 244.5,408.5C 219.783,434.217 194.45,459.217 168.5,483.5C 160.167,475.833 152.167,467.833 144.5,459.5C 162.449,443.218 179.782,426.218 196.5,408.5 Z"/></g>
<g><path style="opacity:1" fill="#2772b8" d="M 244.5,408.5 C 262.5,408.5 280.5,408.5 298.5,408.5C 264.784,443.217 230.451,477.217 195.5,510.5C 186.167,501.833 177.167,492.833 168.5,483.5C 194.45,459.217 219.783,434.217 244.5,408.5 Z"/></g>
<g><path style="opacity:0.996" fill="#3b93e2" d="M 97.5,413.5 C 108.833,424.167 119.833,435.167 130.5,446.5C 115.421,463.081 99.7544,479.248 83.5,495C 82.9056,495.464 82.2389,495.631 81.5,495.5C 67.1604,488.823 54.4938,479.823 43.5,468.5C 61.5,450.167 79.5,431.833 97.5,413.5 Z"/></g>
<g><path style="opacity:0.994" fill="#348ddf" d="M 130.5,446.5 C 135.167,450.833 139.833,455.167 144.5,459.5C 152.167,467.833 160.167,475.833 168.5,483.5C 177.167,492.833 186.167,501.833 195.5,510.5C 195.5,510.833 195.5,511.167 195.5,511.5C 174.5,511.5 153.5,511.5 132.5,511.5C 114.595,509.106 97.5948,503.773 81.5,495.5C 82.2389,495.631 82.9056,495.464 83.5,495C 99.7544,479.248 115.421,463.081 130.5,446.5 Z"/></g>
</svg>
