<svg width="24" height="25" viewBox="0 0 24 25" fill="none" xmlns="http://www.w3.org/2000/svg">
<path d="M19.1212 18.1293C19.3279 18.336 19.4441 18.6164 19.4441 18.9088C19.4441 19.2012 19.3279 19.4816 19.1212 19.6884C18.9144 19.8951 18.634 20.0113 18.3416 20.0113C18.0492 20.0113 17.7688 19.8951 17.562 19.6884L11.7392 13.8637L5.9145 19.6865C5.70774 19.8933 5.42733 20.0094 5.13494 20.0094C4.84254 20.0094 4.56213 19.8933 4.35538 19.6865C4.14862 19.4798 4.03247 19.1994 4.03247 18.907C4.03247 18.6146 4.14862 18.3342 4.35538 18.1274L10.1801 12.3046L4.35721 6.47987C4.15046 6.27311 4.03431 5.9927 4.03431 5.70031C4.03431 5.40791 4.15046 5.1275 4.35721 4.92075C4.56396 4.71399 4.84438 4.59784 5.13677 4.59784C5.42916 4.59784 5.70958 4.71399 5.91633 4.92075L11.7392 10.7454L17.5639 4.91983C17.7706 4.71308 18.051 4.59692 18.3434 4.59692C18.6358 4.59692 18.9162 4.71308 19.123 4.91983C19.3298 5.12658 19.4459 5.407 19.4459 5.69939C19.4459 5.99178 19.3298 6.2722 19.123 6.47895L13.2983 12.3046L19.1212 18.1293Z" fill="#0165FF"/>
</svg>
