<svg width="14" height="14" viewBox="0 0 14 14" fill="none" xmlns="http://www.w3.org/2000/svg">
<g clip-path="url(#clip0_214_2998)">
<path d="M8.15378 1.91065L9.11185 3.82679C9.2425 4.09353 9.59088 4.34937 9.88484 4.39837L11.6213 4.68688C12.7318 4.87196 12.9931 5.67761 12.1929 6.47237L10.8429 7.82238C10.6143 8.05101 10.4891 8.49194 10.5598 8.80766L10.9463 10.4788C11.2512 11.8016 10.549 12.3133 9.37858 11.622L7.75095 10.6585C7.457 10.4843 6.97252 10.4843 6.67313 10.6585L5.0455 11.622C3.88057 12.3133 3.17291 11.7962 3.47775 10.4788L3.86424 8.80766C3.93501 8.49194 3.8098 8.05101 3.58117 7.82238L2.23117 6.47237C1.4364 5.67761 1.69225 4.87196 2.80274 4.68688L4.53924 4.39837C4.82775 4.34937 5.17614 4.09353 5.30679 3.82679L6.26486 1.91065C6.78744 0.870929 7.63664 0.870929 8.15378 1.91065Z" stroke="#FFC700" stroke-width="1.5" stroke-linecap="round" stroke-linejoin="round"/>
</g>
<defs>
<clipPath id="clip0_214_2998">
<rect width="13.0646" height="13.0646" fill="white" transform="translate(0.679688)"/>
</clipPath>
</defs>
</svg>
