<svg width="17" height="17" viewBox="0 0 17 17" fill="none" xmlns="http://www.w3.org/2000/svg">
<path d="M14.1667 3.54169C14.3545 3.54169 14.5347 3.61631 14.6675 3.74915C14.8004 3.88199 14.875 4.06216 14.875 4.25002C14.875 4.43788 14.8004 4.61805 14.6675 4.75089C14.5347 4.88373 14.3545 4.95835 14.1667 4.95835H13.4583L13.4562 5.00865L12.7953 14.2673C12.7699 14.6247 12.61 14.9592 12.3477 15.2034C12.0855 15.4476 11.7405 15.5834 11.3822 15.5834H5.61708C5.25877 15.5834 4.91376 15.4476 4.65154 15.2034C4.38933 14.9592 4.2294 14.6247 4.20396 14.2673L3.54308 5.00935C3.54201 4.99238 3.54154 4.97536 3.54167 4.95835H2.83333C2.64547 4.95835 2.4653 4.88373 2.33247 4.75089C2.19963 4.61805 2.125 4.43788 2.125 4.25002C2.125 4.06216 2.19963 3.88199 2.33247 3.74915C2.4653 3.61631 2.64547 3.54169 2.83333 3.54169H14.1667ZM12.0395 4.95835H4.96046L5.61779 14.1667H11.3822L12.0395 4.95835ZM9.91667 1.41669C10.1045 1.41669 10.2847 1.49131 10.4175 1.62415C10.5504 1.75699 10.625 1.93716 10.625 2.12502C10.625 2.31288 10.5504 2.49305 10.4175 2.62589C10.2847 2.75873 10.1045 2.83335 9.91667 2.83335H7.08333C6.89547 2.83335 6.7153 2.75873 6.58247 2.62589C6.44963 2.49305 6.375 2.31288 6.375 2.12502C6.375 1.93716 6.44963 1.75699 6.58247 1.62415C6.7153 1.49131 6.89547 1.41669 7.08333 1.41669H9.91667Z" fill="#202124"/>
</svg>
