<svg width="20" height="20" viewBox="0 0 20 20" fill="none" xmlns="http://www.w3.org/2000/svg">
<path d="M2.96249 11.8808C2.36416 9.08668 2.06416 7.68918 2.81499 6.76168C3.56499 5.83334 4.99416 5.83334 7.85166 5.83334H12.1483C15.0067 5.83334 16.4342 5.83334 17.185 6.76168C17.935 7.69001 17.6358 9.08668 17.0375 11.8808L16.68 13.5475C16.2742 15.4417 16.0717 16.3883 15.3842 16.9442C14.6967 17.5 13.7283 17.5 11.7917 17.5H8.20833C6.27166 17.5 5.30333 17.5 4.61666 16.9442C3.92833 16.3883 3.72499 15.4417 3.31999 13.5475L2.96249 11.8808Z" stroke="black" stroke-width="1.5"/>
<path d="M2.5 9.16667H17.5M8.33333 11.6667H11.6667M15 7.5L12.5 2.5M5 7.5L7.5 2.5" stroke="black" stroke-width="1.5" stroke-linecap="round" stroke-linejoin="round"/>
</svg>
