<?xml version="1.0" standalone="no"?>
<!DOCTYPE svg PUBLIC "-//W3C//DTD SVG 20010904//EN"
 "http://www.w3.org/TR/2001/REC-SVG-20010904/DTD/svg10.dtd">
<svg version="1.0" xmlns="http://www.w3.org/2000/svg"
 width="602.000000pt" height="597.000000pt" viewBox="0 0 602.000000 597.000000"
 preserveAspectRatio="xMidYMid meet">

<g transform="translate(0.000000,597.000000) scale(0.100000,-0.100000)"
fill="#000000" stroke="none">
<path d="M2819 5887 c-104 -30 -199 -113 -247 -215 -22 -48 -27 -71 -27 -142
0 -105 28 -173 105 -254 74 -79 150 -111 260 -111 72 0 94 4 145 28 79 37 156
114 192 191 24 52 28 74 28 146 0 71 -4 94 -27 142 -77 166 -267 261 -429 215z"/>
<path d="M4083 5579 c-203 -64 -333 -300 -279 -509 40 -155 147 -257 308 -295
252 -59 480 80 521 318 28 163 -56 334 -213 435 -110 71 -221 88 -337 51z"/>
<path d="M1493 5496 c-116 -38 -189 -113 -225 -229 -24 -80 -21 -174 7 -245
21 -51 88 -112 164 -149 81 -38 211 -44 296 -13 81 30 165 114 190 191 56 164
-20 351 -172 425 -67 33 -191 43 -260 20z"/>
<path d="M5061 4675 c-366 -103 -489 -487 -241 -758 86 -94 189 -148 315 -166
202 -29 380 72 473 266 36 76 37 81 37 188 0 131 -20 191 -94 288 -115 150
-326 228 -490 182z"/>
<path d="M532 4508 c-51 -17 -124 -89 -157 -155 -26 -50 -30 -69 -30 -138 0
-71 4 -89 33 -147 37 -75 73 -110 151 -146 46 -21 63 -24 130 -20 90 6 152 32
212 90 62 60 83 116 84 218 0 73 -4 92 -27 136 -32 61 -94 119 -157 147 -54
24 -187 32 -239 15z"/>
<path d="M5440 3389 c-145 -25 -278 -125 -344 -261 -94 -190 -59 -406 89 -554
194 -195 490 -191 683 10 66 68 105 136 127 223 83 319 -222 639 -555 582z"/>
<path d="M218 3187 c-132 -37 -217 -162 -206 -301 13 -163 137 -267 303 -254
103 9 187 64 229 151 55 112 41 216 -40 306 -81 90 -185 126 -286 98z"/>
<path d="M5085 2120 c-164 -34 -301 -145 -383 -311 -103 -208 -72 -411 85
-568 101 -101 244 -161 383 -161 228 0 444 155 516 370 27 82 25 225 -4 312
-87 253 -347 409 -597 358z"/>
<path d="M539 1877 c-72 -20 -129 -75 -166 -157 -19 -43 -22 -168 -5 -227 15
-50 82 -122 143 -155 58 -30 186 -33 239 -4 63 33 115 83 145 137 26 47 30 64
30 134 0 63 -5 89 -23 122 -30 57 -86 111 -139 135 -56 25 -164 32 -224 15z"/>
<path d="M1509 870 c-20 -11 -49 -34 -64 -52 -36 -42 -85 -146 -85 -178 0 -78
56 -161 134 -203 63 -33 166 -31 228 5 98 58 144 191 100 290 -25 58 -87 127
-129 145 -47 19 -141 16 -184 -7z"/>
<path d="M2822 537 c-49 -15 -127 -90 -147 -139 -56 -139 19 -302 159 -343 62
-19 90 -19 152 0 140 41 214 197 161 337 -22 57 -100 132 -153 147 -48 13
-128 13 -172 -2z"/>
</g>
</svg>
