<svg width="14" height="14" viewBox="0 0 14 14" fill="none" xmlns="http://www.w3.org/2000/svg">
<g clip-path="url(#clip0_214_2996)">
<path d="M7.65109 1.91065L8.60916 3.82679C8.73981 4.09353 9.0882 4.34937 9.38215 4.39837L11.1187 4.68688C12.2291 4.87196 12.4904 5.67761 11.6902 6.47237L10.3402 7.82238C10.1116 8.05101 9.98639 8.49194 10.0572 8.80766L10.4436 10.4788C10.7485 11.8016 10.0463 12.3133 8.8759 11.622L7.24827 10.6585C6.95432 10.4843 6.46984 10.4843 6.17044 10.6585L4.54281 11.622C3.37788 12.3133 2.67022 11.7962 2.97506 10.4788L3.36155 8.80766C3.43232 8.49194 3.30712 8.05101 3.07849 7.82238L1.72848 6.47237C0.933718 5.67761 1.18957 4.87196 2.30006 4.68688L4.03656 4.39837C4.32507 4.34937 4.67346 4.09353 4.8041 3.82679L5.76217 1.91065C6.28476 0.870929 7.13395 0.870929 7.65109 1.91065Z" fill="#FFC700" stroke="#FFC700" stroke-width="1.5" stroke-linecap="round" stroke-linejoin="round"/>
</g>
<defs>
<clipPath id="clip0_214_2996">
<rect width="13.0646" height="13.0646" fill="white" transform="translate(0.177002)"/>
</clipPath>
</defs>
</svg>
