<svg width="9" height="9" viewBox="0 0 9 9" fill="none" xmlns="http://www.w3.org/2000/svg">
<g clip-path="url(#clip0_204_862)">
<path d="M5.14878 1.31624L5.80878 2.63624C5.89878 2.81999 6.13878 2.99624 6.34128 3.02999L7.53753 3.22874C8.30253 3.35624 8.48253 3.91124 7.93128 4.45874L7.00128 5.38874C6.84378 5.54624 6.75753 5.84999 6.80628 6.06749L7.07253 7.21874C7.28253 8.12999 6.79878 8.48249 5.99253 8.00624L4.87128 7.34249C4.66878 7.22249 4.33503 7.22249 4.12878 7.34249L3.00753 8.00624C2.20503 8.48249 1.71753 8.12624 1.92753 7.21874L2.19378 6.06749C2.24253 5.84999 2.15628 5.54624 1.99878 5.38874L1.06878 4.45874C0.521277 3.91124 0.697527 3.35624 1.46253 3.22874L2.65878 3.02999C2.85753 2.99624 3.09753 2.81999 3.18753 2.63624L3.84753 1.31624C4.20753 0.59999 4.79253 0.59999 5.14878 1.31624Z" fill="#FFC700" stroke="#FFC700" stroke-width="1.5" stroke-linecap="round" stroke-linejoin="round"/>
</g>
<defs>
<clipPath id="clip0_204_862">
<rect width="9" height="9" fill="white"/>
</clipPath>
</defs>
</svg>
